<svg xmlns="http://www.w3.org/2000/svg" xmlns:xlink="http://www.w3.org/1999/xlink" xmlns:lucid="lucid" width="1400" height="1385.67"><g transform="translate(-160 -100)" lucid:page-tab-id="0_0"><path d="M380 276c0-3.3 2.7-6 6-6h148c3.3 0 6 2.7 6 6v108c0 3.3-2.7 6-6 6H386c-3.3 0-6-2.7-6-6z" stroke="#3a414a" fill="#4ab5c4"/><use xlink:href="#a" transform="matrix(1,0,0,1,385,275) translate(14.31749131944445 63.42664930555556)"/><use xlink:href="#b" transform="matrix(1,0,0,1,385,275) translate(118.37565104166666 63.42664930555556)"/><path d="M460 184.83v64.05" stroke="#3a414a" stroke-width="3" fill="none"/><path d="M461.5 184.87h-3v-1.54h3z" stroke="#3a414a" stroke-width=".05" fill="#3a414a"/><path d="M460 264.65l-4.64-14.27h9.28z" stroke="#3a414a" stroke-width="3" fill="#3a414a"/><path d="M380 466c0-3.3 2.7-6 6-6h148c3.3 0 6 2.7 6 6v108c0 3.3-2.7 6-6 6H386c-3.3 0-6-2.7-6-6z" stroke="#3a414a" fill="#c0cf3a"/><use xlink:href="#c" transform="matrix(1,0,0,1,385,465) translate(26.638454861111114 63.42664930555556)"/><path d="M542 330h32.5c3.3 0 6 2.7 6 6v338c0 3.3-2.7 6-6 6h-53.38" stroke="#e81313" stroke-width="3" fill="none"/><path d="M542.04 331.5h-1.54v-3h1.54z" stroke="#e81313" stroke-width=".05" fill="#e81313"/><path d="M505.35 680l14.27-4.64v9.28z" stroke="#e81313" stroke-width="3" fill="#e81313"/><path d="M500 680c0 22.1-17.9 40-40 40s-40-17.9-40-40 17.9-40 40-40 40 17.9 40 40z" stroke="#3a414a" fill="#004b3a"/><use xlink:href="#d" transform="matrix(1,0,0,1,425,645) translate(21.27387152777778 42.80164930555556)"/><path d="M460 392v46.88" stroke="#008a0e" stroke-width="3" fill="none"/><path d="M461.5 392.04h-3v-1.54h3z" stroke="#008a0e" stroke-width=".05" fill="#008a0e"/><path d="M460 454.65l-4.64-14.27h9.28z" stroke="#008a0e" stroke-width="3" fill="#008a0e"/><path d="M460 582v36.88" stroke="#008a0e" stroke-width="3" fill="none"/><path d="M461.5 582.04h-3v-1.54h3z" stroke="#008a0e" stroke-width=".05" fill="#008a0e"/><path d="M460 634.65l-4.64-14.27h9.28z" stroke="#008a0e" stroke-width="3" fill="#008a0e"/><path d="M600 486c0-3.3 2.7-6 6-6h148c3.3 0 6 2.7 6 6v51.33c0 3.32-2.7 6-6 6H606c-3.3 0-6-2.68-6-6z" stroke="#000" stroke-opacity="0" fill="#fff" fill-opacity="0"/><use xlink:href="#e" transform="matrix(1,0,0,1,605,485) translate(6.266276041666657 18.739149305555554)"/><use xlink:href="#f" transform="matrix(1,0,0,1,605,485) translate(30.669487847222214 18.739149305555554)"/><use xlink:href="#g" transform="matrix(1,0,0,1,605,485) translate(54.58441840277777 18.739149305555554)"/><use xlink:href="#h" transform="matrix(1,0,0,1,605,485) translate(32.11263020833333 41.87282986111111)"/><use xlink:href="#i" transform="matrix(1,0,0,1,605,485) translate(63.058810763888886 41.87282986111111)"/><path d="M180 406c0-3.3 2.7-6 6-6h248c3.3 0 6 2.7 6 6v51.33c0 3.32-2.7 6-6 6H186c-3.3 0-6-2.68-6-6z" stroke="#000" stroke-opacity="0" fill="#fff" fill-opacity="0"/><use xlink:href="#e" transform="matrix(1,0,0,1,185,405) translate(13.802083333333343 35.61414930555556)"/><use xlink:href="#f" transform="matrix(1,0,0,1,185,405) translate(38.2052951388889 35.61414930555556)"/><use xlink:href="#j" transform="matrix(1,0,0,1,185,405) translate(62.12022569444446 35.61414930555556)"/><use xlink:href="#h" transform="matrix(1,0,0,1,185,405) translate(159.1254340277778 35.61414930555556)"/><use xlink:href="#k" transform="matrix(1,0,0,1,185,405) translate(190.07161458333334 35.61414930555556)"/><path d="M380 126c0-3.3 2.7-6 6-6h148c3.3 0 6 2.7 6 6v51.33c0 3.32-2.7 6-6 6H386c-3.3 0-6-2.68-6-6z" stroke="#000" stroke-opacity="0" fill="#fff" fill-opacity="0"/><use xlink:href="#l" transform="matrix(1,0,0,1,385,125) translate(48.67621527777778 35.61414930555556)"/><path d="M1020 276c0-3.3 2.7-6 6-6h148c3.3 0 6 2.7 6 6v108c0 3.3-2.7 6-6 6h-148c-3.3 0-6-2.7-6-6z" stroke="#3a414a" fill="#4ab5c4"/><use xlink:href="#a" transform="matrix(1,0,0,1,1025,275) translate(14.31749131944445 63.42664930555556)"/><use xlink:href="#b" transform="matrix(1,0,0,1,1025,275) translate(118.37565104166666 63.42664930555556)"/><path d="M1100 184.83v64.05" stroke="#3a414a" stroke-width="3" fill="none"/><path d="M1101.5 184.87h-3v-1.54h3z" stroke="#3a414a" stroke-width=".05" fill="#3a414a"/><path d="M1100 264.65l-4.64-14.27h9.28z" stroke="#3a414a" stroke-width="3" fill="#3a414a"/><path d="M1020 466c0-3.3 2.7-6 6-6h148c3.3 0 6 2.7 6 6v108c0 3.3-2.7 6-6 6h-148c-3.3 0-6-2.7-6-6z" stroke="#3a414a" fill="#c0cf3a"/><use xlink:href="#m" transform="matrix(1,0,0,1,1025,465) translate(16.145833333333336 63.42664930555556)"/><use xlink:href="#n" transform="matrix(1,0,0,1,1025,465) translate(121.05034722222223 63.42664930555556)"/><path d="M1182 330h62.66c3.3 0 6 2.7 6 6v51.33c0 3.32 2.7 6 6 6h43.54" stroke="#e81313" stroke-width="3" fill="none"/><path d="M1182.04 331.5h-1.54v-3h1.54z" stroke="#e81313" stroke-width=".05" fill="#e81313"/><path d="M1315.97 393.33l-14.27 4.64v-9.27z" stroke="#e81313" stroke-width="3" fill="#e81313"/><path d="M1240 720c0 22.1-17.9 40-40 40s-40-17.9-40-40 17.9-40 40-40 40 17.9 40 40z" stroke="#3a414a" fill="#004b3a"/><use xlink:href="#d" transform="matrix(1,0,0,1,1165,685) translate(21.27387152777778 42.80164930555556)"/><path d="M1100 392v46.88" stroke="#008a0e" stroke-width="3" fill="none"/><path d="M1101.5 392.04h-3v-1.54h3z" stroke="#008a0e" stroke-width=".05" fill="#008a0e"/><path d="M1100 454.65l-4.64-14.27h9.28z" stroke="#008a0e" stroke-width="3" fill="#008a0e"/><path d="M1100 582v42c0 3.3 2.7 6 6 6h88c3.3 0 6 2.7 6 6v22.88" stroke="#008a0e" stroke-width="3" fill="none"/><path d="M1101.5 582.04h-3v-1.54h3z" stroke="#008a0e" stroke-width=".05" fill="#008a0e"/><path d="M1200 674.65l-4.64-14.27h9.28z" stroke="#008a0e" stroke-width="3" fill="#008a0e"/><path d="M1200 266c0-3.3 2.7-6 6-6h228c3.3 0 6 2.7 6 6v51.33c0 3.32-2.7 6-6 6h-228c-3.3 0-6-2.68-6-6z" stroke="#000" stroke-opacity="0" fill="#fff" fill-opacity="0"/><use xlink:href="#e" transform="matrix(1,0,0,1,1205,265) translate(30.793185763888886 18.739149305555554)"/><use xlink:href="#f" transform="matrix(1,0,0,1,1205,265) translate(55.19639756944444 18.739149305555554)"/><use xlink:href="#j" transform="matrix(1,0,0,1,1205,265) translate(79.111328125 18.739149305555554)"/><use xlink:href="#o" transform="matrix(1,0,0,1,1205,265) translate(176.11653645833334 18.739149305555554)"/><use xlink:href="#i" transform="matrix(1,0,0,1,1205,265) translate(87.58572048611111 41.87282986111111)"/><path d="M820 406c0-3.3 2.7-6 6-6h248c3.3 0 6 2.7 6 6v51.33c0 3.32-2.7 6-6 6H826c-3.3 0-6-2.68-6-6z" stroke="#000" stroke-opacity="0" fill="#fff" fill-opacity="0"/><use xlink:href="#e" transform="matrix(1,0,0,1,825,404.99999999999994) translate(13.802083333333343 35.61414930555556)"/><use xlink:href="#f" transform="matrix(1,0,0,1,825,404.99999999999994) translate(38.2052951388889 35.61414930555556)"/><use xlink:href="#j" transform="matrix(1,0,0,1,825,404.99999999999994) translate(62.12022569444446 35.61414930555556)"/><use xlink:href="#h" transform="matrix(1,0,0,1,825,404.99999999999994) translate(159.1254340277778 35.61414930555556)"/><use xlink:href="#k" transform="matrix(1,0,0,1,825,404.99999999999994) translate(190.07161458333334 35.61414930555556)"/><path d="M1020 126c0-3.3 2.7-6 6-6h148c3.3 0 6 2.7 6 6v51.33c0 3.32-2.7 6-6 6h-148c-3.3 0-6-2.68-6-6z" stroke="#000" stroke-opacity="0" fill="#fff" fill-opacity="0"/><use xlink:href="#l" transform="matrix(1,0,0,1,1025,125) translate(48.67621527777778 35.61414930555556)"/><path d="M1260 469.33c0-3.3 2.7-6 6-6h148c3.3 0 6 2.7 6 6v108c0 3.32-2.7 6-6 6h-148c-3.3 0-6-2.68-6-6z" stroke="#3a414a" fill="#e81313"/><use xlink:href="#p" transform="matrix(1,0,0,1,1265,468.3333333333333) translate(16.30859375 63.42664930555556)"/><use xlink:href="#q" transform="matrix(1,0,0,1,1265,468.3333333333333) translate(121.21310763888889 63.42664930555556)"/><path d="M1340 585.33v40.46c0 3.3-2.7 6-6 6h-123.92c-3.3 0-6 2.68-6 6v21.33" stroke="#e81313" stroke-width="3" fill="none"/><path d="M1341.5 585.37h-3v-1.54h3z" stroke="#e81313" stroke-width=".05" fill="#e81313"/><path d="M1204.08 674.9l-4.64-14.27h9.28z" stroke="#e81313" stroke-width="3" fill="#e81313"/><path d="M1400 383.33c0 22.1-17.9 40-40 40s-40-17.9-40-40 17.9-40 40-40 40 17.9 40 40z" stroke="#3a414a" fill="#e81313"/><use xlink:href="#r" transform="matrix(1,0,0,1,1325,348.33333333333326) translate(14.519314236111114 42.80164930555556)"/><path d="M1360 425.33v12c0 3.32-2.7 6-6 6h-12.88" stroke="#e81313" stroke-width="3" fill="none"/><path d="M1360 423.83l1.5-.05v1.6h-3v-1.64z" stroke="#e81313" stroke-width=".05" fill="#e81313"/><path d="M1340.28 458l-3.8-14.52 9.24.53z" stroke="#e81313" stroke-width="3" fill="#e81313"/><path d="M380 976c0-3.3 2.7-6 6-6h148c3.3 0 6 2.7 6 6v108c0 3.3-2.7 6-6 6H386c-3.3 0-6-2.7-6-6z" stroke="#3a414a" fill="#4ab5c4"/><use xlink:href="#s" transform="matrix(1,0,0,1,385,975) translate(14.860026041666671 39.36414930555556)"/><use xlink:href="#t" transform="matrix(1,0,0,1,385,975) translate(56.982421875 39.36414930555556)"/><use xlink:href="#u" transform="matrix(1,0,0,1,385,975) translate(82.38389756944444 39.36414930555556)"/><use xlink:href="#v" transform="matrix(1,0,0,1,385,975) translate(10.096571180555571 63.14887152777777)"/><use xlink:href="#w" transform="matrix(1,0,0,1,385,975) translate(109.619140625 63.14887152777777)"/><use xlink:href="#x" transform="matrix(1,0,0,1,385,975) translate(39.21440972222222 86.28255208333333)"/><path d="M460 884.83v64.05" stroke="#3a414a" stroke-width="3" fill="none"/><path d="M461.5 884.87h-3v-1.54h3z" stroke="#3a414a" stroke-width=".05" fill="#3a414a"/><path d="M460 964.65l-4.64-14.27h9.28z" stroke="#3a414a" stroke-width="3" fill="#3a414a"/><path d="M380 1286c0-3.3 2.7-6 6-6h148c3.3 0 6 2.7 6 6v108c0 3.3-2.7 6-6 6H386c-3.3 0-6-2.7-6-6z" stroke="#3a414a" fill="#c0cf3a"/><use xlink:href="#y" transform="matrix(1,0,0,1,385,1285) translate(20.263671875 29.051649305555554)"/><use xlink:href="#z" transform="matrix(1,0,0,1,385,1285) translate(99.45203993055556 29.051649305555554)"/><use xlink:href="#A" transform="matrix(1,0,0,1,385,1285) translate(53.92252604166667 52.185329861111114)"/><use xlink:href="#B" transform="matrix(1,0,0,1,385,1285) translate(16.786024305555557 75.31901041666667)"/><use xlink:href="#C" transform="matrix(1,0,0,1,385,1285) translate(22.341579861111107 98.45269097222223)"/><use xlink:href="#D" transform="matrix(1,0,0,1,385,1285) translate(56.119791666666664 98.45269097222223)"/><path d="M542 1030h92c3.3 0 6 2.7 6 6v242.88" stroke="#e81313" stroke-width="3" fill="none"/><path d="M542.04 1031.5h-1.54v-3h1.54z" stroke="#e81313" stroke-width=".05" fill="#e81313"/><path d="M640 1294.65l-4.64-14.27h9.28z" stroke="#e81313" stroke-width="3" fill="#e81313"/><path d="M680 1340c0 22.1-17.9 40-40 40s-40-17.9-40-40 17.9-40 40-40 40 17.9 40 40z" stroke="#3a414a" fill="#004b3a"/><use xlink:href="#d" transform="matrix(1,0,0,1,605,1305) translate(21.27387152777778 42.80164930555556)"/><path d="M460 1092v166.88" stroke="#008a0e" stroke-width="3" fill="none"/><path d="M461.5 1092.04h-3v-1.54h3z" stroke="#008a0e" stroke-width=".05" fill="#008a0e"/><path d="M460 1274.65l-4.64-14.27h9.28z" stroke="#008a0e" stroke-width="3" fill="#008a0e"/><path d="M378 1340h-62c-3.3 0-6-2.7-6-6v-298c0-3.3 2.7-6 6-6h42.88" stroke="#008a0e" stroke-width="3" fill="none"/><path d="M379.5 1341.5h-1.54v-3h1.54z" stroke="#008a0e" stroke-width=".05" fill="#008a0e"/><path d="M374.65 1030l-14.27 4.64v-9.28z" stroke="#008a0e" stroke-width="3" fill="#008a0e"/><path d="M560 966c0-3.3 2.7-6 6-6h48c3.3 0 6 2.7 6 6v51.33c0 3.32-2.7 6-6 6h-48c-3.3 0-6-2.68-6-6z" stroke="#000" stroke-opacity="0" fill="#fff" fill-opacity="0"/><use xlink:href="#E" transform="matrix(1,0,0,1,565,965) translate(16.438802083333336 35.61414930555556)"/><path d="M380 1146c0-3.3 2.7-6 6-6h88c3.3 0 6 2.7 6 6v51.33c0 3.32-2.7 6-6 6h-88c-3.3 0-6-2.68-6-6z" stroke="#000" stroke-opacity="0" fill="#fff" fill-opacity="0"/><use xlink:href="#F" transform="matrix(1,0,0,1,385,1145) translate(33.070529513888886 35.61414930555556)"/><path d="M380 826c0-3.3 2.7-6 6-6h148c3.3 0 6 2.7 6 6v51.33c0 3.32-2.7 6-6 6H386c-3.3 0-6-2.68-6-6z" stroke="#000" stroke-opacity="0" fill="#fff" fill-opacity="0"/><use xlink:href="#l" transform="matrix(1,0,0,1,385,825) translate(48.67621527777778 35.61414930555556)"/><path d="M820.43 976c0-3.3 2.7-6 6-6h148c3.32 0 6 2.7 6 6v108c0 3.3-2.68 6-6 6h-148c-3.3 0-6-2.7-6-6z" stroke="#3a414a" fill="#4ab5c4"/><use xlink:href="#G" transform="matrix(1,0,0,1,825.4330708661416,975) translate(8.5666232638889 62.4609375)"/><use xlink:href="#H" transform="matrix(1,0,0,1,825.4330708661416,975) translate(86.181640625 62.4609375)"/><path d="M900.43 884.83v64.05" stroke="#3a414a" stroke-width="3" fill="none"/><path d="M901.93 884.87h-3v-1.54h3z" stroke="#3a414a" stroke-width=".05" fill="#3a414a"/><path d="M900.43 964.65l-4.63-14.27h9.27z" stroke="#3a414a" stroke-width="3" fill="#3a414a"/><path d="M820.43 1166c0-3.3 2.7-6 6-6h148c3.32 0 6 2.7 6 6v108c0 3.3-2.68 6-6 6h-148c-3.3 0-6-2.7-6-6z" stroke="#3a414a" fill="#c0cf3a"/><use xlink:href="#y" transform="matrix(1,0,0,1,825.4330708661416,1165) translate(20.263671875 29.051649305555554)"/><use xlink:href="#z" transform="matrix(1,0,0,1,825.4330708661416,1165) translate(99.45203993055556 29.051649305555554)"/><use xlink:href="#A" transform="matrix(1,0,0,1,825.4330708661416,1165) translate(53.92252604166667 52.185329861111114)"/><use xlink:href="#B" transform="matrix(1,0,0,1,825.4330708661416,1165) translate(16.786024305555557 75.31901041666667)"/><use xlink:href="#C" transform="matrix(1,0,0,1,825.4330708661416,1165) translate(22.341579861111107 98.45269097222223)"/><use xlink:href="#D" transform="matrix(1,0,0,1,825.4330708661416,1165) translate(56.119791666666664 98.45269097222223)"/><path d="M982.43 1030h92c3.32 0 6 2.7 6 6v242.88" stroke="#e81313" stroke-width="3" fill="none"/><path d="M982.47 1031.5h-1.54v-3h1.54z" stroke="#e81313" stroke-width=".05" fill="#e81313"/><path d="M1080.43 1294.65l-4.63-14.27h9.27z" stroke="#e81313" stroke-width="3" fill="#e81313"/><path d="M1120.43 1340c0 22.1-17.9 40-40 40s-40-17.9-40-40 17.9-40 40-40 40 17.9 40 40z" stroke="#3a414a" fill="#004b3a"/><use xlink:href="#d" transform="matrix(1,0,0,1,1045.4330708661416,1305) translate(21.27387152777778 42.80164930555556)"/><path d="M900.43 1092v46.88" stroke="#008a0e" stroke-width="3" fill="none"/><path d="M901.93 1092.04h-3v-1.54h3z" stroke="#008a0e" stroke-width=".05" fill="#008a0e"/><path d="M900.43 1154.65l-4.63-14.27h9.27z" stroke="#008a0e" stroke-width="3" fill="#008a0e"/><path d="M818.43 1402.83h-62c-3.3 0-6-2.68-6-6V1036c0-3.3 2.7-6 6-6h42.88" stroke="#008a0e" stroke-width="3" fill="none"/><path d="M819.93 1404.33h-1.54v-3h1.53z" stroke="#008a0e" stroke-width=".05" fill="#008a0e"/><path d="M815.08 1030l-14.27 4.64v-9.28z" stroke="#008a0e" stroke-width="3" fill="#008a0e"/><path d="M1000.43 966c0-3.3 2.7-6 6-6h48c3.32 0 6 2.7 6 6v51.33c0 3.32-2.68 6-6 6h-48c-3.3 0-6-2.68-6-6z" stroke="#000" stroke-opacity="0" fill="#fff" fill-opacity="0"/><g><use xlink:href="#I" transform="matrix(1,0,0,1,1005.4330708661416,965) translate(-2.4142795138888893 34.17230902777778)"/></g><path d="M800 1102.67c0-3.32 2.7-6 6-6h88c3.3 0 6 2.68 6 6V1154c0 3.3-2.7 6-6 6h-88c-3.3 0-6-2.7-6-6z" stroke="#000" stroke-opacity="0" fill="#fff" fill-opacity="0"/><g><use xlink:href="#J" transform="matrix(1,0,0,1,805,1101.6666666666667) translate(22.436848958333336 35.61414930555556)"/></g><path d="M820.43 826c0-3.3 2.7-6 6-6h148c3.32 0 6 2.7 6 6v51.33c0 3.32-2.68 6-6 6h-148c-3.3 0-6-2.68-6-6z" stroke="#000" stroke-opacity="0" fill="#fff" fill-opacity="0"/><g><use xlink:href="#l" transform="matrix(1,0,0,1,825.4330708661416,825) translate(48.67621527777778 35.61414930555556)"/></g><path d="M820.43 1346c0-3.3 2.7-6 6-6h148c3.32 0 6 2.7 6 6v113.67c0 3.3-2.68 6-6 6h-148c-3.3 0-6-2.7-6-6z" stroke="#3a414a" fill="#029676"/><g><use xlink:href="#K" transform="matrix(1,0,0,1,825.4330708661416,1345) translate(11.035156250000007 18.739149305555554)"/><use xlink:href="#L" transform="matrix(1,0,0,1,825.4330708661416,1345) translate(24.473741319444443 41.87282986111111)"/><use xlink:href="#M" transform="matrix(1,0,0,1,825.4330708661416,1345) translate(62.939453125 41.87282986111111)"/><use xlink:href="#N" transform="matrix(1,0,0,1,825.4330708661416,1345) translate(40.14756944444444 65.00651041666666)"/><use xlink:href="#O" transform="matrix(1,0,0,1,825.4330708661416,1345) translate(93.27256944444444 65.00651041666666)"/><use xlink:href="#P" transform="matrix(1,0,0,1,825.4330708661416,1345) translate(27.528211805555557 88.14019097222221)"/><use xlink:href="#Q" transform="matrix(1,0,0,1,825.4330708661416,1345) translate(47.24392361111111 111.27387152777777)"/></g><path d="M900.43 1282v36.88" stroke="#008a0e" stroke-width="3" fill="none"/><path d="M901.93 1282.04h-3v-1.54h3z" stroke="#008a0e" stroke-width=".05" fill="#008a0e"/><path d="M900.43 1334.65l-4.63-14.27h9.27z" stroke="#008a0e" stroke-width="3" fill="#008a0e"/><path d="M1350 884.83v94.05" stroke="#3a414a" stroke-width="3" fill="none"/><path d="M1351.5 884.87h-3v-1.54h3z" stroke="#3a414a" stroke-width=".05" fill="#3a414a"/><path d="M1350 994.65l-4.64-14.27h9.28z" stroke="#3a414a" stroke-width="3" fill="#3a414a"/><path d="M1270 1006c0-3.3 2.7-6 6-6h148c3.3 0 6 2.7 6 6v108c0 3.3-2.7 6-6 6h-148c-3.3 0-6-2.7-6-6z" stroke="#3a414a" fill="#c0cf3a"/><g><use xlink:href="#y" transform="matrix(1,0,0,1,1275,1005) translate(20.263671875 29.051649305555554)"/><use xlink:href="#z" transform="matrix(1,0,0,1,1275,1005) translate(99.45203993055556 29.051649305555554)"/><use xlink:href="#A" transform="matrix(1,0,0,1,1275,1005) translate(53.92252604166667 52.185329861111114)"/><use xlink:href="#B" transform="matrix(1,0,0,1,1275,1005) translate(16.786024305555557 75.31901041666667)"/><use xlink:href="#C" transform="matrix(1,0,0,1,1275,1005) translate(22.341579861111107 98.45269097222223)"/><use xlink:href="#D" transform="matrix(1,0,0,1,1275,1005) translate(56.119791666666664 98.45269097222223)"/></g><path d="M1432 1218.33h32.5c3.3 0 6 2.7 6 6V1414c0 3.3-2.7 6-6 6h-63.38" stroke="#e81313" stroke-width="3" fill="none"/><path d="M1432.04 1219.83h-1.54v-3h1.54z" stroke="#e81313" stroke-width=".05" fill="#e81313"/><path d="M1385.35 1420l14.27-4.64v9.28z" stroke="#e81313" stroke-width="3" fill="#e81313"/><path d="M1380 1420c0 22.1-17.9 40-40 40s-40-17.9-40-40 17.9-40 40-40 40 17.9 40 40z" stroke="#3a414a" fill="#004b3a"/><g><use xlink:href="#d" transform="matrix(1,0,0,1,1305,1385) translate(21.27387152777778 42.80164930555556)"/></g><path d="M1350 1280.33V1334c0 3.3-2.7 6-6 6h-138c-3.3 0-6-2.7-6-6v-298c0-3.3 2.7-6 6-6h42.88" stroke="#008a0e" stroke-width="3" fill="none"/><path d="M1351.5 1280.37h-3v-1.54h3z" stroke="#008a0e" stroke-width=".05" fill="#008a0e"/><path d="M1264.65 1030l-14.27 4.64v-9.28z" stroke="#008a0e" stroke-width="3" fill="#008a0e"/><path d="M1480 1290.17c0-3.32 2.7-6 6-6h48c3.3 0 6 2.68 6 6v51.33c0 3.3-2.7 6-6 6h-48c-3.3 0-6-2.7-6-6z" stroke="#000" stroke-opacity="0" fill="#fff" fill-opacity="0"/><g><use xlink:href="#E" transform="matrix(1,0,0,1,1485,1289.166666666667) translate(16.438802083333336 35.61414930555556)"/></g><path d="M1260 1290.17c0-3.32 2.7-6 6-6h88c3.3 0 6 2.68 6 6v51.33c0 3.3-2.7 6-6 6h-88c-3.3 0-6-2.7-6-6z" stroke="#000" stroke-opacity="0" fill="#fff" fill-opacity="0"/><g><use xlink:href="#F" transform="matrix(1,0,0,1,1265,1289.1666666666667) translate(33.070529513888886 35.61414930555556)"/></g><path d="M1270 826c0-3.3 2.7-6 6-6h148c3.3 0 6 2.7 6 6v51.33c0 3.32-2.7 6-6 6h-148c-3.3 0-6-2.68-6-6z" stroke="#000" stroke-opacity="0" fill="#fff" fill-opacity="0"/><g><use xlink:href="#l" transform="matrix(1,0,0,1,1275,825) translate(48.67621527777778 35.61414930555556)"/></g><path d="M1270 1164.33c0-3.3 2.7-6 6-6h148c3.3 0 6 2.7 6 6v108c0 3.32-2.7 6-6 6h-148c-3.3 0-6-2.68-6-6z" stroke="#3a414a" fill="#029676"/><g><use xlink:href="#R" transform="matrix(1,0,0,1,1275,1163.3333333333335) translate(33.376736111111114 63.42664930555556)"/></g><path d="M1350 1122v15.2" stroke="#008a0e" stroke-width="3" fill="none"/><path d="M1351.5 1122.04h-3v-1.54h3z" stroke="#008a0e" stroke-width=".05" fill="#008a0e"/><path d="M1350 1152.98l-4.64-14.27h9.28z" stroke="#008a0e" stroke-width="3" fill="#008a0e"/><defs><path fill="#f2f2ff" d="M525 21C250 26 36-232 36-512v-335c-8-279 214-533 489-533 269 0 443 204 484 450H844c-26-159-149-285-319-285-187 0-324 162-324 352v367c-5 191 137 352 324 352 171 0 294-127 319-285h165C968-183 794 16 525 21" id="S"/><path fill="#f2f2ff" d="M838-484c0-173-151-342-322-342-177 0-319 167-319 342 0 176 146 340 319 340 171 0 322-167 322-340zm-807 0c0-265 224-507 485-507 260 0 487 246 487 507 0 260-229 505-487 505C255 21 31-224 31-484" id="T"/><path fill="#f2f2ff" d="M530-826c-179 0-312 160-312 342V0H53v-970h165v127c78-99 182-148 312-148 289 0 456 203 456 499V0H819v-484c2-203-95-342-289-342" id="U"/><path fill="#f2f2ff" d="M860-484c0-175-137-342-310-342-172 0-345 169-345 342s167 340 340 340c172 0 315-166 315-340zm-820 0c0-260 250-507 510-507 131 0 236 50 315 149v-515h167V0H865v-128C782-29 675 21 545 21 285 21 40-224 40-484" id="V"/><path fill="#f2f2ff" d="M233-1172c-50 0-96-44-96-94 0-49 46-93 96-93s96 43 96 93c0 52-44 94-96 94zM26-970h289V0H150v-805H26v-165" id="W"/><path fill="#f2f2ff" d="M30-484c0-265 224-507 485-507 196 0 345 102 446 305H770c-63-93-148-140-255-140-177 0-319 167-319 342 0 176 146 340 319 340 93 0 176-43 249-128h193C846-77 699 21 515 21 254 21 30-224 30-484" id="X"/><path fill="#f2f2ff" d="M838-484c0-173-151-342-322-342-177 0-319 167-319 342 0 176 146 340 319 340 171 0 322-167 322-340zm-807 0c0-265 224-507 485-507 260 0 487 246 487 507 0 260-229 505-487 505C255 21 31-224 31-484zm389-648l213-225h299l-430 305" id="Y"/><g id="a"><use transform="matrix(0.010850694444444444,0,0,0.010850694444444444,0,0)" xlink:href="#S"/><use transform="matrix(0.010850694444444444,0,0,0.010850694444444444,12.3046875,0)" xlink:href="#T"/><use transform="matrix(0.010850694444444444,0,0,0.010850694444444444,24.837239583333332,0)" xlink:href="#U"/><use transform="matrix(0.010850694444444444,0,0,0.010850694444444444,37.28298611111111,0)" xlink:href="#V"/><use transform="matrix(0.010850694444444444,0,0,0.010850694444444444,50.34722222222221,0)" xlink:href="#W"/><use transform="matrix(0.010850694444444444,0,0,0.010850694444444444,55.01302083333333,0)" xlink:href="#X"/><use transform="matrix(0.010850694444444444,0,0,0.010850694444444444,66.3845486111111,0)" xlink:href="#W"/><use transform="matrix(0.010850694444444444,0,0,0.010850694444444444,71.05034722222221,0)" xlink:href="#Y"/><use transform="matrix(0.010850694444444444,0,0,0.010850694444444444,83.43098958333333,0)" xlink:href="#U"/></g><path fill="#f2f2ff" d="M28-165h167v-1028H28v-164h505v164H362v1028h171V0H28v-165" id="Z"/><path fill="#f2f2ff" d="M861-1357v165H218v374h516v169H218V0H53v-1357h808" id="aa"/><g id="b"><use transform="matrix(0.010850694444444444,0,0,0.010850694444444444,0,0)" xlink:href="#Z"/><use transform="matrix(0.010850694444444444,0,0,0.010850694444444444,6.966145833333333,0)" xlink:href="#aa"/></g><path fill="#024d02" d="M812-932c0-167-190-264-368-264H218v528h244c168 4 350-105 350-264zm166 0c-6 217-176 357-367 405L904 0H711L431-503H218V0H51v-1357h393c258-7 540 177 534 425" id="ab"/><path fill="#024d02" d="M816-616c-46-109-154-210-294-210-133 0-258 109-301 210h595zM31-484c0-260 230-507 491-507 282 0 495 254 487 541H196c10 148 163 311 326 306 147-5 277-104 326-215l166 28C947-150 753 16 522 21 260 27 31-223 31-484" id="ac"/><path fill="#024d02" d="M68-580C-45-823 215-987 454-987c229 0 422 106 446 301l-161 34c-17-73-62-125-139-149-121-38-274-36-352 29-25 21-38 44-38 71 0 66 59 112 178 131 86 13 176 12 261 32 115 27 244 96 244 266 0 81-40 141-102 191C645 38 359 49 192-49 101-102 48-180 33-282l163-35c5 118 149 172 287 172 93 0 238-46 238-127 0-45-37-74-103-103-48-21-337-53-386-71-61-22-144-92-164-134" id="ad"/><path fill="#024d02" d="M470-144c172 0 264-158 264-340v-486h165V0H734v-96C656-18 568 21 470 21 202 21 46-186 46-463v-507h165v507c-4 167 99 319 259 319" id="ae"/><path fill="#024d02" d="M125-1357h167V0H125v-1357" id="af"/><path fill="#024d02" d="M395 0C260 4 152-110 152-245v-560H6v-165c76 0 121-15 136-44 7-13 10-65 10-156h165v200h235v165H317v560c-9 115 138 72 235 80V0H395" id="ag"/><path fill="#024d02" d="M484-144c91 0 275-43 275-120v-184c-54 18-283 13-339 27-84 21-172 73-172 157 0 80 79 120 236 120zm27-847c168 0 413 106 413 260v563c0 15 16 23 48 26-4 64-6 118-6 163-81-4-138-29-172-76-80 51-181 76-304 76C213 21 75-75 75-266c0-155 132-276 270-302-15-8 340-16 395-49 13-7 20-20 21-39-1 24-2 8-2-49 0-71-154-124-234-124-152 0-248 58-288 173L79-690c32-191 203-301 432-301" id="ah"/><path fill="#024d02" d="M860-484c0-175-137-342-310-342-172 0-345 169-345 342s167 340 340 340c172 0 315-166 315-340zm-820 0c0-260 250-507 510-507 131 0 236 50 315 149v-515h167V0H865v-128C782-29 675 21 545 21 285 21 40-224 40-484" id="ai"/><path fill="#024d02" d="M838-484c0-173-151-342-322-342-177 0-319 167-319 342 0 176 146 340 319 340 171 0 322-167 322-340zm-807 0c0-265 224-507 485-507 260 0 487 246 487 507 0 260-229 505-487 505C255 21 31-224 31-484" id="aj"/><g id="c"><use transform="matrix(0.010850694444444444,0,0,0.010850694444444444,0,0)" xlink:href="#ab"/><use transform="matrix(0.010850694444444444,0,0,0.010850694444444444,12.22873263888889,0)" xlink:href="#ac"/><use transform="matrix(0.010850694444444444,0,0,0.010850694444444444,24.76128472222222,0)" xlink:href="#ad"/><use transform="matrix(0.010850694444444444,0,0,0.010850694444444444,35.97005208333333,0)" xlink:href="#ae"/><use transform="matrix(0.010850694444444444,0,0,0.010850694444444444,47.580295138888886,0)" xlink:href="#af"/><use transform="matrix(0.010850694444444444,0,0,0.010850694444444444,52.267795138888886,0)" xlink:href="#ag"/><use transform="matrix(0.010850694444444444,0,0,0.010850694444444444,59.23394097222222,0)" xlink:href="#ah"/><use transform="matrix(0.010850694444444444,0,0,0.010850694444444444,71.12630208333333,0)" xlink:href="#ai"/><use transform="matrix(0.010850694444444444,0,0,0.010850694444444444,84.19053819444444,0)" xlink:href="#aj"/></g><g id="d"><use transform="matrix(0.010850694444444444,0,0,0.010850694444444444,0,0)" xlink:href="#aa"/><use transform="matrix(0.010850694444444444,0,0,0.010850694444444444,10.340711805555555,0)" xlink:href="#W"/><use transform="matrix(0.010850694444444444,0,0,0.010850694444444444,15.006510416666666,0)" xlink:href="#U"/></g><path fill="#3a414a" d="M892-988c1-180-155-261-350-261-239 0-359 83-359 250 0 109 72 186 218 225 134 36 273 57 404 101 148 49 217 165 217 318 0 218-259 377-488 377C285 22 54-135 53-369h130c6 176 157 261 349 261 178 0 360-88 360-250 0-109-72-188-217-228-134-37-272-59-404-103C123-738 53-851 53-998c0-227 241-381 478-381 258 0 497 146 491 391H892" id="ak"/><path fill="#3a414a" d="M240-1205c-40 0-79-36-79-76s39-76 79-76c41 0 78 35 78 76s-37 76-78 76zM47-957h257V0H174v-827H47v-130" id="al"/><g id="e"><use transform="matrix(0.010850694444444444,0,0,0.010850694444444444,0,0)" xlink:href="#ak"/><use transform="matrix(0.010850694444444444,0,0,0.010850694444444444,12.20703125,0)" xlink:href="#al"/></g><path fill="#3a414a" d="M52-478c0-256 228-501 485-501 264 0 489 248 480 516H180c0 180 174 355 357 355 148 0 301-110 347-219l130 23C955-140 749 17 537 22 280 28 52-222 52-478zm815-115c-38-129-172-257-330-256-158 0-295 130-340 256h670" id="am"/><path fill="#3a414a" d="M86-1355h132V0H86v-1355" id="an"/><g id="f"><use transform="matrix(0.010850694444444444,0,0,0.010850694444444444,0,0)" xlink:href="#am"/><use transform="matrix(0.010850694444444444,0,0,0.010850694444444444,12.20703125,0)" xlink:href="#an"/></g><path fill="#3a414a" d="M550-827c-191 0-346 159-346 349V0H72v-957h132v174c85-116 198-174 339-174h204v174c-69-29-134-44-197-44" id="ao"/><path fill="#3a414a" d="M898-260C898-89 674 20 489 20 280 20 75-78 57-254l126-27c2 114 176 171 313 171 113 0 265-50 265-150 0-60-40-102-120-127-21-6-104-22-252-42-166-23-242-71-302-158-134-339 365-481 654-327 94 50 148 120 161 213l-126 27c-25-116-134-174-329-174-116 0-251 47-251 149 0 73 54 127 164 147 83 15 168 18 253 29 83 11 158 46 225 101 40 33 60 87 60 162" id="ap"/><path fill="#3a414a" d="M483-108c191 0 291-169 291-370v-479h130V0H774v-137C701-31 604 22 483 22 219 22 67-183 67-456v-501h130v501c-4 182 112 348 286 348" id="aq"/><path fill="#3a414a" d="M406 0C279 4 176-105 176-232v-595H26v-130c75 0 120-17 137-51 9-17 13-69 13-155h130v206h241v130H306v595c0 70 49 105 146 105 18 0 78-3 95-3V0H406" id="ar"/><path fill="#3a414a" d="M497-108c108 0 303-51 303-143v-220c-2 23-338 19-365 38-104 20-200 82-200 182 0 95 87 143 262 143zm28-871c161 0 405 100 405 248v579c0 27 16 41 48 44-1 21-3 64-5 129-72-4-122-33-151-87-82 59-188 88-318 88C233 22 97-70 97-253c0-145 124-253 248-288 70-20 368-9 427-58 17-9 27-25 29-46-1 7-1-13-1-60 0-84-168-147-260-147-166 0-269 58-309 174l-126-27c31-178 203-274 420-274" id="as"/><path fill="#3a414a" d="M-2-478c0-256 249-501 505-501 147 0 261 65 343 196v-572h132V0H846v-174C761-43 645 22 498 22 243 22-2-223-2-478zm843 0c0-191-151-371-338-371S128-665 128-478s183 370 370 370c188 0 343-180 343-370" id="at"/><path fill="#3a414a" d="M881-477c0-189-160-372-351-372-189 0-348 181-348 372s160 369 348 369 351-180 351-369zm-829-1c0-256 220-501 478-501 257 0 481 246 481 502S785 22 530 22C276 22 52-223 52-478" id="au"/><g id="g"><use transform="matrix(0.010850694444444444,0,0,0.010850694444444444,0,0)" xlink:href="#ao"/><use transform="matrix(0.010850694444444444,0,0,0.010850694444444444,8.430989583333334,0)" xlink:href="#am"/><use transform="matrix(0.010850694444444444,0,0,0.010850694444444444,20.638020833333336,0)" xlink:href="#ap"/><use transform="matrix(0.010850694444444444,0,0,0.010850694444444444,31.521267361111114,0)" xlink:href="#aq"/><use transform="matrix(0.010850694444444444,0,0,0.010850694444444444,42.805989583333336,0)" xlink:href="#an"/><use transform="matrix(0.010850694444444444,0,0,0.010850694444444444,46.65798611111111,0)" xlink:href="#ar"/><use transform="matrix(0.010850694444444444,0,0,0.010850694444444444,53.29861111111112,0)" xlink:href="#as"/><use transform="matrix(0.010850694444444444,0,0,0.010850694444444444,64.86545138888889,0)" xlink:href="#at"/><use transform="matrix(0.010850694444444444,0,0,0.010850694444444444,76.94227430555556,0)" xlink:href="#au"/></g><g id="h"><use transform="matrix(0.010850694444444444,0,0,0.010850694444444444,0,0)" xlink:href="#am"/><use transform="matrix(0.010850694444444444,0,0,0.010850694444444444,12.20703125,0)" xlink:href="#ap"/></g><path fill="#3a414a" d="M865-1355v130H204v424h531v134H204V0H74v-1355h791" id="av"/><path fill="#3a414a" d="M695-649l-152-510-156 510h308zM888 0L732-517H348L192 0H57l406-1355h160L1029 0H888" id="aw"/><path fill="#3a414a" d="M204-1355v1225h596V0H74v-1355h130" id="ax"/><path fill="#3a414a" d="M865-1355v130H204v428h531v130H204v537h661V0H74v-1355h791" id="ay"/><g id="i"><use transform="matrix(0.010850694444444444,0,0,0.010850694444444444,0,0)" xlink:href="#av"/><use transform="matrix(0.010850694444444444,0,0,0.010850694444444444,10.015190972222221,0)" xlink:href="#aw"/><use transform="matrix(0.010850694444444444,0,0,0.010850694444444444,22.493489583333332,0)" xlink:href="#ax"/><use transform="matrix(0.010850694444444444,0,0,0.010850694444444444,32.37847222222222,0)" xlink:href="#ak"/><use transform="matrix(0.010850694444444444,0,0,0.010850694444444444,44.58550347222222,0)" xlink:href="#ay"/></g><g id="j"><use transform="matrix(0.010850694444444444,0,0,0.010850694444444444,0,0)" xlink:href="#ao"/><use transform="matrix(0.010850694444444444,0,0,0.010850694444444444,8.430989583333334,0)" xlink:href="#am"/><use transform="matrix(0.010850694444444444,0,0,0.010850694444444444,20.638020833333336,0)" xlink:href="#ap"/><use transform="matrix(0.010850694444444444,0,0,0.010850694444444444,31.521267361111114,0)" xlink:href="#aq"/><use transform="matrix(0.010850694444444444,0,0,0.010850694444444444,42.805989583333336,0)" xlink:href="#an"/><use transform="matrix(0.010850694444444444,0,0,0.010850694444444444,46.65798611111111,0)" xlink:href="#ar"/><use transform="matrix(0.010850694444444444,0,0,0.010850694444444444,53.29861111111112,0)" xlink:href="#as"/><use transform="matrix(0.010850694444444444,0,0,0.010850694444444444,64.86545138888889,0)" xlink:href="#at"/><use transform="matrix(0.010850694444444444,0,0,0.010850694444444444,76.94227430555556,0)" xlink:href="#au"/></g><path fill="#3a414a" d="M558-1225V0H428v-1225H21v-130h954v130H558" id="az"/><path fill="#3a414a" d="M855-938c0-185-202-291-399-291H204v582h271c185 5 380-116 380-291zm130 0c0 214-192 369-387 402L895 0H743L456-517H204V0H72v-1355h384c256-7 529 172 529 417" id="aA"/><path fill="#3a414a" d="M543 22C276 22 65-235 65-506v-849h130v867c-5 202 149 380 348 380s349-180 349-384v-863h130v849c8 271-212 528-479 528" id="aB"/><g id="k"><use transform="matrix(0.010850694444444444,0,0,0.010850694444444444,0,0)" xlink:href="#az"/><use transform="matrix(0.010850694444444444,0,0,0.010850694444444444,11.50173611111111,0)" xlink:href="#aA"/><use transform="matrix(0.010850694444444444,0,0,0.010850694444444444,23.404947916666664,0)" xlink:href="#aB"/><use transform="matrix(0.010850694444444444,0,0,0.010850694444444444,35.88324652777777,0)" xlink:href="#ay"/></g><path fill="#3a414a" d="M28-165h167v-1028H28v-164h505v164H362v1028h171V0H28v-165" id="aC"/><path fill="#3a414a" d="M530-826c-179 0-312 160-312 342V0H53v-970h165v127c78-99 182-148 312-148 289 0 456 203 456 499V0H819v-484c2-203-95-342-289-342" id="aD"/><path fill="#3a414a" d="M233-1172c-50 0-96-44-96-94 0-49 46-93 96-93s96 43 96 93c0 52-44 94-96 94zM26-970h289V0H150v-805H26v-165" id="aE"/><path fill="#3a414a" d="M30-484c0-265 224-507 485-507 196 0 345 102 446 305H770c-63-93-148-140-255-140-177 0-319 167-319 342 0 176 146 340 319 340 93 0 176-43 249-128h193C846-77 699 21 515 21 254 21 30-224 30-484" id="aF"/><path fill="#3a414a" d="M838-484c0-173-151-342-322-342-177 0-319 167-319 342 0 176 146 340 319 340 171 0 322-167 322-340zm-807 0c0-265 224-507 485-507 260 0 487 246 487 507 0 260-229 505-487 505C255 21 31-224 31-484" id="aG"/><g id="l"><use transform="matrix(0.010850694444444444,0,0,0.010850694444444444,0,0)" xlink:href="#aC"/><use transform="matrix(0.010850694444444444,0,0,0.010850694444444444,6.966145833333333,0)" xlink:href="#aD"/><use transform="matrix(0.010850694444444444,0,0,0.010850694444444444,19.41189236111111,0)" xlink:href="#aE"/><use transform="matrix(0.010850694444444444,0,0,0.010850694444444444,24.07769097222222,0)" xlink:href="#aF"/><use transform="matrix(0.010850694444444444,0,0,0.010850694444444444,35.44921875,0)" xlink:href="#aE"/><use transform="matrix(0.010850694444444444,0,0,0.010850694444444444,40.115017361111114,0)" xlink:href="#aG"/></g><g id="m"><use transform="matrix(0.010850694444444444,0,0,0.010850694444444444,0,0)" xlink:href="#ab"/><use transform="matrix(0.010850694444444444,0,0,0.010850694444444444,12.22873263888889,0)" xlink:href="#ac"/><use transform="matrix(0.010850694444444444,0,0,0.010850694444444444,24.76128472222222,0)" xlink:href="#ad"/><use transform="matrix(0.010850694444444444,0,0,0.010850694444444444,35.97005208333333,0)" xlink:href="#ae"/><use transform="matrix(0.010850694444444444,0,0,0.010850694444444444,47.580295138888886,0)" xlink:href="#af"/><use transform="matrix(0.010850694444444444,0,0,0.010850694444444444,52.267795138888886,0)" xlink:href="#ag"/><use transform="matrix(0.010850694444444444,0,0,0.010850694444444444,59.23394097222222,0)" xlink:href="#ah"/><use transform="matrix(0.010850694444444444,0,0,0.010850694444444444,71.12630208333333,0)" xlink:href="#ai"/><use transform="matrix(0.010850694444444444,0,0,0.010850694444444444,84.19053819444444,0)" xlink:href="#aj"/></g><path fill="#024d02" d="M651-670c-28-91-69-228-123-411-28 91-70 228-125 411h248zM849 0L698-503H353C289-288 238-121 201 0H29l407-1357h185L1027 0H849" id="aH"/><use transform="matrix(0.010850694444444444,0,0,0.010850694444444444,0,0)" xlink:href="#aH" id="n"/><g id="o"><use transform="matrix(0.010850694444444444,0,0,0.010850694444444444,0,0)" xlink:href="#am"/><use transform="matrix(0.010850694444444444,0,0,0.010850694444444444,12.20703125,0)" xlink:href="#ap"/></g><path fill="#f2f2ff" d="M812-932c0-167-190-264-368-264H218v528h244c168 4 350-105 350-264zm166 0c-6 217-176 357-367 405L904 0H711L431-503H218V0H51v-1357h393c258-7 540 177 534 425" id="aI"/><path fill="#f2f2ff" d="M816-616c-46-109-154-210-294-210-133 0-258 109-301 210h595zM31-484c0-260 230-507 491-507 282 0 495 254 487 541H196c10 148 163 311 326 306 147-5 277-104 326-215l166 28C947-150 753 16 522 21 260 27 31-223 31-484" id="aJ"/><path fill="#f2f2ff" d="M68-580C-45-823 215-987 454-987c229 0 422 106 446 301l-161 34c-17-73-62-125-139-149-121-38-274-36-352 29-25 21-38 44-38 71 0 66 59 112 178 131 86 13 176 12 261 32 115 27 244 96 244 266 0 81-40 141-102 191C645 38 359 49 192-49 101-102 48-180 33-282l163-35c5 118 149 172 287 172 93 0 238-46 238-127 0-45-37-74-103-103-48-21-337-53-386-71-61-22-144-92-164-134" id="aK"/><path fill="#f2f2ff" d="M470-144c172 0 264-158 264-340v-486h165V0H734v-96C656-18 568 21 470 21 202 21 46-186 46-463v-507h165v507c-4 167 99 319 259 319" id="aL"/><path fill="#f2f2ff" d="M125-1357h167V0H125v-1357" id="aM"/><path fill="#f2f2ff" d="M395 0C260 4 152-110 152-245v-560H6v-165c76 0 121-15 136-44 7-13 10-65 10-156h165v200h235v165H317v560c-9 115 138 72 235 80V0H395" id="aN"/><path fill="#f2f2ff" d="M484-144c91 0 275-43 275-120v-184c-54 18-283 13-339 27-84 21-172 73-172 157 0 80 79 120 236 120zm27-847c168 0 413 106 413 260v563c0 15 16 23 48 26-4 64-6 118-6 163-81-4-138-29-172-76-80 51-181 76-304 76C213 21 75-75 75-266c0-155 132-276 270-302-15-8 340-16 395-49 13-7 20-20 21-39-1 24-2 8-2-49 0-71-154-124-234-124-152 0-248 58-288 173L79-690c32-191 203-301 432-301" id="aO"/><g id="p"><use transform="matrix(0.010850694444444444,0,0,0.010850694444444444,0,0)" xlink:href="#aI"/><use transform="matrix(0.010850694444444444,0,0,0.010850694444444444,12.22873263888889,0)" xlink:href="#aJ"/><use transform="matrix(0.010850694444444444,0,0,0.010850694444444444,24.76128472222222,0)" xlink:href="#aK"/><use transform="matrix(0.010850694444444444,0,0,0.010850694444444444,35.97005208333333,0)" xlink:href="#aL"/><use transform="matrix(0.010850694444444444,0,0,0.010850694444444444,47.580295138888886,0)" xlink:href="#aM"/><use transform="matrix(0.010850694444444444,0,0,0.010850694444444444,52.267795138888886,0)" xlink:href="#aN"/><use transform="matrix(0.010850694444444444,0,0,0.010850694444444444,59.23394097222222,0)" xlink:href="#aO"/><use transform="matrix(0.010850694444444444,0,0,0.010850694444444444,71.12630208333333,0)" xlink:href="#V"/><use transform="matrix(0.010850694444444444,0,0,0.010850694444444444,84.19053819444444,0)" xlink:href="#T"/></g><path fill="#f2f2ff" d="M770-968c0-129-144-224-277-224H218v448h271c138 4 281-91 281-224zm67 592c0-117-165-199-291-199H218v410h328c125 5 291-93 291-211zm161 0C998-158 773 0 546 0H53v-1357h433c236-5 449 159 449 389 0 115-46 209-137 282 133 73 200 176 200 310" id="aP"/><use transform="matrix(0.010850694444444444,0,0,0.010850694444444444,0,0)" xlink:href="#aP" id="q"/><g id="r"><use transform="matrix(0.010850694444444444,0,0,0.010850694444444444,0,0)" xlink:href="#aJ"/><use transform="matrix(0.010850694444444444,0,0,0.010850694444444444,12.532552083333332,0)" xlink:href="#aM"/><use transform="matrix(0.010850694444444444,0,0,0.010850694444444444,17.220052083333332,0)" xlink:href="#aK"/><use transform="matrix(0.010850694444444444,0,0,0.010850694444444444,28.428819444444443,0)" xlink:href="#aJ"/></g><path fill="#f2f2ff" d="M512-1109c58 0 92 54 92 111 0 54-47 143-99 143-62 0-131-50-131-114 0-67 71-140 138-140zm-77 300c158 0 303 62 301 208 0 65-40 150-120 253-9 11-84 97-225 256C310 0 270 64 270 99c66 50 182 41 283 12 69-20 113-39 131-63l-6 20c36-47 75-71 116-71 39 0 59 25 59 75 0 144-306 247-467 247-157 0-307-83-307-229 0-63 40-147 119-250 7-9 79-96 220-258 79-92 120-155 120-190-9-8-37 3-52 2-67-5-108-7-124-12-47-13-70-43-70-89 0-68 48-102 143-102" id="aQ"/><g id="s"><use transform="matrix(0.010850694444444444,0,0,0.010850694444444444,0,0)" xlink:href="#aQ"/><use transform="matrix(0.010850694444444444,0,0,0.010850694444444444,10.199652777777777,0)" xlink:href="#aJ"/><use transform="matrix(0.010850694444444444,0,0,0.010850694444444444,22.732204861111104,0)" xlink:href="#aK"/></g><g id="t"><use transform="matrix(0.010850694444444444,0,0,0.010850694444444444,0,0)" xlink:href="#aJ"/><use transform="matrix(0.010850694444444444,0,0,0.010850694444444444,12.532552083333332,0)" xlink:href="#aM"/></g><path fill="#f2f2ff" d="M470-144c172 0 264-158 264-340v-486h165V0H734v-96C656-18 568 21 470 21 202 21 46-186 46-463v-507h165v507c-4 167 99 319 259 319zm-188-988l213-225h299l-430 305" id="aR"/><path fill="#f2f2ff" d="M1018-991c257 0 359 224 359 507V0h-166v-484c0-228-64-342-193-342-155-1-215 166-215 342V0H637l-1-484c0-228-64-342-193-342-159-1-225 164-225 342V0H53v-970h165v68c59-59 134-89 225-89 133 0 229 56 286 168 46-112 142-168 289-168" id="aS"/><g id="u"><use transform="matrix(0.010850694444444444,0,0,0.010850694444444444,0,0)" xlink:href="#aR"/><use transform="matrix(0.010850694444444444,0,0,0.010850694444444444,11.458333333333332,0)" xlink:href="#aM"/><use transform="matrix(0.010850694444444444,0,0,0.010850694444444444,16.145833333333332,0)" xlink:href="#aN"/><use transform="matrix(0.010850694444444444,0,0,0.010850694444444444,23.111979166666664,0)" xlink:href="#aS"/><use transform="matrix(0.010850694444444444,0,0,0.010850694444444444,40.22352430555556,0)" xlink:href="#T"/></g><g id="v"><use transform="matrix(0.010850694444444444,0,0,0.010850694444444444,0,0)" xlink:href="#aJ"/><use transform="matrix(0.010850694444444444,0,0,0.010850694444444444,12.532552083333332,0)" xlink:href="#aM"/><use transform="matrix(0.010850694444444444,0,0,0.010850694444444444,17.220052083333332,0)" xlink:href="#aJ"/><use transform="matrix(0.010850694444444444,0,0,0.010850694444444444,29.752604166666664,0)" xlink:href="#aS"/><use transform="matrix(0.010850694444444444,0,0,0.010850694444444444,46.86414930555556,0)" xlink:href="#aJ"/><use transform="matrix(0.010850694444444444,0,0,0.010850694444444444,59.396701388888886,0)" xlink:href="#U"/><use transform="matrix(0.010850694444444444,0,0,0.010850694444444444,71.84244791666666,0)" xlink:href="#aN"/><use transform="matrix(0.010850694444444444,0,0,0.010850694444444444,78.80859374999999,0)" xlink:href="#T"/></g><g id="w"><use transform="matrix(0.010850694444444444,0,0,0.010850694444444444,0,0)" xlink:href="#V"/><use transform="matrix(0.010850694444444444,0,0,0.010850694444444444,13.06423611111111,0)" xlink:href="#aJ"/><use transform="matrix(0.010850694444444444,0,0,0.010850694444444444,25.596788194444443,0)" xlink:href="#aM"/></g><path fill="#f2f2ff" d="M878-484c0-170-176-342-346-342-173 0-309 165-309 342 0 174 142 340 314 340 171 0 341-169 341-340zm165 0c0 259-247 505-506 505-129 0-236-50-319-149V0H51v-1357h167v515c79-99 183-149 314-149 260 0 511 247 511 507" id="aT"/><path fill="#f2f2ff" d="M260-1170c-50 0-97-44-97-94s47-93 97-93 95 43 95 93-45 94-95 94zM53-970h288L340 76c3 193-150 315-349 312V219c123 0 184-48 184-143v-879H54" id="aU"/><path fill="#f2f2ff" d="M300 0c-48 0-88-40-88-88s40-87 88-87c46 0 88 41 88 87 0 48-40 88-88 88zm79-416c0 23 2 103 2 124H215c0-33-1-97-1-137 4-234 58-352 200-430 52-29 138-54 138-132 0-132-61-198-182-198-123 0-185 72-185 217H17c-4-218 139-385 353-385 185 0 355 157 355 343 0 91-23 160-70 207-31 32-101 66-192 109-57 27-84 123-84 282" id="aV"/><g id="x"><use transform="matrix(0.010850694444444444,0,0,0.010850694444444444,0,0)" xlink:href="#T"/><use transform="matrix(0.010850694444444444,0,0,0.010850694444444444,12.532552083333332,0)" xlink:href="#aT"/><use transform="matrix(0.010850694444444444,0,0,0.010850694444444444,25.206163194444443,0)" xlink:href="#aU"/><use transform="matrix(0.010850694444444444,0,0,0.010850694444444444,30.555555555555554,0)" xlink:href="#aJ"/><use transform="matrix(0.010850694444444444,0,0,0.010850694444444444,43.088107638888886,0)" xlink:href="#aN"/><use transform="matrix(0.010850694444444444,0,0,0.010850694444444444,50.05425347222222,0)" xlink:href="#T"/><use transform="matrix(0.010850694444444444,0,0,0.010850694444444444,62.58680555555555,0)" xlink:href="#aV"/></g><path fill="#024d02" d="M525 21C250 26 36-232 36-512v-335c-8-279 214-533 489-533 269 0 443 204 484 450H844c-26-159-149-285-319-285-187 0-324 162-324 352v367c-5 191 137 352 324 352 171 0 294-127 319-285h165C968-183 794 16 525 21" id="aW"/><path fill="#024d02" d="M535-805c-177 0-317 145-317 321V0H51v-970h167v134c85-89 189-134 310-134h218v218c-83-35-153-53-211-53" id="aX"/><path fill="#024d02" d="M223-484c0 174 142 340 313 340 169 0 319-168 319-340 0-174-147-342-319-342-173 0-313 166-313 342zm798 0c0 261-225 505-485 505-129 0-235-50-318-149v516H53V-970h165v128c83-99 189-149 318-149 260 0 485 246 485 507" id="aY"/><g id="y"><use transform="matrix(0.010850694444444444,0,0,0.010850694444444444,0,0)" xlink:href="#aW"/><use transform="matrix(0.010850694444444444,0,0,0.010850694444444444,12.3046875,0)" xlink:href="#ae"/><use transform="matrix(0.010850694444444444,0,0,0.010850694444444444,23.914930555555554,0)" xlink:href="#ac"/><use transform="matrix(0.010850694444444444,0,0,0.010850694444444444,36.447482638888886,0)" xlink:href="#aX"/><use transform="matrix(0.010850694444444444,0,0,0.010850694444444444,46.07204861111111,0)" xlink:href="#aY"/><use transform="matrix(0.010850694444444444,0,0,0.010850694444444444,58.47439236111111,0)" xlink:href="#aj"/></g><g id="z"><use transform="matrix(0.010850694444444444,0,0,0.010850694444444444,0,0)" xlink:href="#ai"/><use transform="matrix(0.010850694444444444,0,0,0.010850694444444444,13.06423611111111,0)" xlink:href="#ac"/><use transform="matrix(0.010850694444444444,0,0,0.010850694444444444,25.596788194444443,0)" xlink:href="#af"/></g><g id="A"><use transform="matrix(0.010850694444444444,0,0,0.010850694444444444,0,0)" xlink:href="#af"/><use transform="matrix(0.010850694444444444,0,0,0.010850694444444444,4.6875,0)" xlink:href="#aj"/><use transform="matrix(0.010850694444444444,0,0,0.010850694444444444,17.220052083333332,0)" xlink:href="#aj"/><use transform="matrix(0.010850694444444444,0,0,0.010850694444444444,29.752604166666664,0)" xlink:href="#aY"/></g><path fill="#024d02" d="M413 393C30 316-11-536 113-995c58-214 161-336 300-367v143c-127 54-191 299-191 735 0 435 64 680 191 734v143" id="aZ"/><path fill="#024d02" d="M30-484c0-265 224-507 485-507 196 0 345 102 446 305H770c-63-93-148-140-255-140-177 0-319 167-319 342 0 176 146 340 319 340 93 0 176-43 249-128h193C846-77 699 21 515 21 254 21 30-224 30-484" id="ba"/><path fill="#024d02" d="M530-826c-179 0-312 160-312 342V0H53v-970h165v127c78-99 182-148 312-148 289 0 456 203 456 499V0H819v-484c2-203-95-342-289-342" id="bb"/><path fill="#024d02" d="M233-1172c-50 0-96-44-96-94 0-49 46-93 96-93s96 43 96 93c0 52-44 94-96 94zM26-970h289V0H150v-805H26v-165" id="bc"/><g id="B"><use transform="matrix(0.010850694444444444,0,0,0.010850694444444444,0,0)" xlink:href="#aZ"/><use transform="matrix(0.010850694444444444,0,0,0.010850694444444444,5.588107638888888,0)" xlink:href="#ad"/><use transform="matrix(0.010850694444444444,0,0,0.010850694444444444,16.796875,0)" xlink:href="#ac"/><use transform="matrix(0.010850694444444444,0,0,0.010850694444444444,29.329427083333332,0)" xlink:href="#ba"/><use transform="matrix(0.010850694444444444,0,0,0.010850694444444444,40.70095486111111,0)" xlink:href="#ae"/><use transform="matrix(0.010850694444444444,0,0,0.010850694444444444,52.311197916666664,0)" xlink:href="#ac"/><use transform="matrix(0.010850694444444444,0,0,0.010850694444444444,64.84375,0)" xlink:href="#bb"/><use transform="matrix(0.010850694444444444,0,0,0.010850694444444444,77.28949652777777,0)" xlink:href="#ba"/><use transform="matrix(0.010850694444444444,0,0,0.010850694444444444,88.66102430555554,0)" xlink:href="#bc"/><use transform="matrix(0.010850694444444444,0,0,0.010850694444444444,93.32682291666666,0)" xlink:href="#ah"/><use transform="matrix(0.010850694444444444,0,0,0.010850694444444444,105.21918402777777,0)" xlink:href="#ad"/></g><g id="C"><use transform="matrix(0.010850694444444444,0,0,0.010850694444444444,0,0)" xlink:href="#ai"/><use transform="matrix(0.010850694444444444,0,0,0.010850694444444444,13.06423611111111,0)" xlink:href="#ac"/></g><path fill="#024d02" d="M838-484c0-173-151-342-322-342-177 0-319 167-319 342 0 176 146 340 319 340 171 0 322-167 322-340zm-807 0c0-265 224-507 485-507 260 0 487 246 487 507 0 260-229 505-487 505C255 21 31-224 31-484zm389-648l213-225h299l-430 305" id="bd"/><path fill="#024d02" d="M192-484c0 176 132 340 304 340 176 0 296-170 296-340 0-175-125-342-296-342-172 0-304 166-304 342zM962-87c7 262-205 470-468 470C247 383 70 200 36-22l162-27c41 178 140 267 297 267 189 0 305-150 302-345C718-28 618 21 496 21 226 21 26-209 26-484c0-263 209-507 470-507 123 0 224 50 301 151v-130h165v883" id="be"/><path fill="#024d02" d="M35-1360c382 78 425 930 300 1388-59 215-161 336-300 367V252c128-53 192-298 192-735 0-436-64-681-192-734v-143" id="bf"/><g id="D"><use transform="matrix(0.010850694444444444,0,0,0.010850694444444444,0,0)" xlink:href="#ba"/><use transform="matrix(0.010850694444444444,0,0,0.010850694444444444,11.371527777777777,0)" xlink:href="#bd"/><use transform="matrix(0.010850694444444444,0,0,0.010850694444444444,23.75217013888889,0)" xlink:href="#ai"/><use transform="matrix(0.010850694444444444,0,0,0.010850694444444444,36.81640625,0)" xlink:href="#bc"/><use transform="matrix(0.010850694444444444,0,0,0.010850694444444444,41.482204861111114,0)" xlink:href="#be"/><use transform="matrix(0.010850694444444444,0,0,0.010850694444444444,53.74348958333333,0)" xlink:href="#aj"/><use transform="matrix(0.010850694444444444,0,0,0.010850694444444444,66.27604166666667,0)" xlink:href="#bf"/></g><path fill="#3a414a" d="M24-1150l200-211h235L82-1093zm152 193h257V0H303v-827H176v-130" id="bg"/><g id="E"><use transform="matrix(0.010850694444444444,0,0,0.010850694444444444,0,0)" xlink:href="#ak"/><use transform="matrix(0.010850694444444444,0,0,0.010850694444444444,12.20703125,0)" xlink:href="#bg"/></g><path fill="#3a414a" d="M227-1355L895-225v-1130h132V0H873L204-1135V0H72v-1355h155" id="bh"/><g id="F"><use transform="matrix(0.010850694444444444,0,0,0.010850694444444444,0,0)" xlink:href="#bh"/><use transform="matrix(0.010850694444444444,0,0,0.010850694444444444,12.651909722222221,0)" xlink:href="#au"/></g><path fill="#f2f2ff" d="M242-567c0 228 105 412 323 412 121 0 200-56 237-168 65-27 164-31 164 55 0 17-9 46-27 85C873-38 748 34 563 34 230 34 46-235 46-579c0-191 46-368 140-532 110-192 254-288 430-288 141 0 249 78 304 240 22 65-30 128-94 126-35 0-69-28-102-85s-70-85-111-85c-115 0-209 81-282 242-59 131-89 262-89 394" id="bi"/><path fill="#f2f2ff" d="M425-862c217 0 353 210 353 439 0 240-138 457-368 457C191 34 49-155 49-377c0-243 145-485 376-485zm-9 703c111 0 169-142 169-264 0-111-61-246-162-246-123 0-184 93-184 278 0 155 59 232 177 232" id="bj"/><path fill="#f2f2ff" d="M432-858c231 0 331 186 331 435 0 67-21 291-19 358 2 50-44 98-94 97-161-3-83-317-83-459 0-161-47-242-140-242-73 0-130 35-171 106v447c0 100-32 150-97 150C98 34 67-4 67-80c-2-279 3-404 3-720 48-30 87-45 116-45 27 0 46 14 56 41 59-36 123-54 190-54" id="bk"/><path fill="#f2f2ff" d="M555-828c4-155-11-330-11-481 0-60 30-90 89-90 48 0 79 26 94 78 7 24 10 70 10 137 0 363-3 845 29 1153-44 35-82 53-114 53-23 0-40-14-53-42-61 36-127 54-196 54C185 34 15-173 15-393c0-266 251-557 540-435zM215-399c0 121 74 239 189 239 65 0 121-23 166-69-7-86-10-208-10-365-47-42-93-63-138-63-109 0-207 146-207 258" id="bl"/><path fill="#f2f2ff" d="M166-1145c59 0 114 47 114 107 0 55-45 110-101 110S68-983 68-1038c0-54 42-107 98-107zm102 399c0 47 1 108-5 186-18 245-2 393-31 567C152 48 64 53 63-55c-3-213 9-280 9-561 0-147 36-220 109-220 58 0 87 30 87 90" id="bm"/><path fill="#f2f2ff" d="M693-317c70-2 127 82 85 150C718-70 552 31 404 34 201 38 40-151 44-358c4-212 146-388 302-458 115-51 232-54 316 28 45 43 73 95 84 157-37 55-72 83-106 83-41 12-94-120-135-109-108-10-258 167-258 275 0 142 52 213 157 213 43 0 97-25 163-74s108-74 126-74" id="bn"/><path fill="#f2f2ff" d="M380-862c217 0 353 210 353 439 0 240-138 457-368 457C146 34 4-155 4-377c0-243 145-485 376-485zm-9 703c111 0 169-142 169-264 0-111-61-246-162-246-123 0-184 93-184 278 0 155 59 232 177 232zm189-1156c48-2 97 43 95 92 16 47-193 293-242 275-49 1-96-40-96-89 0-44 136-212 168-240 27-24 51-38 75-38" id="bo"/><g id="G"><use transform="matrix(0.010850694444444444,0,0,0.010850694444444444,0,0)" xlink:href="#bi"/><use transform="matrix(0.010850694444444444,0,0,0.010850694444444444,11.002604166666666,0)" xlink:href="#bj"/><use transform="matrix(0.010850694444444444,0,0,0.010850694444444444,19.99782986111111,0)" xlink:href="#bk"/><use transform="matrix(0.010850694444444444,0,0,0.010850694444444444,28.92795138888889,0)" xlink:href="#bl"/><use transform="matrix(0.010850694444444444,0,0,0.010850694444444444,37.92317708333333,0)" xlink:href="#bm"/><use transform="matrix(0.010850694444444444,0,0,0.010850694444444444,41.666666666666664,0)" xlink:href="#bn"/><use transform="matrix(0.010850694444444444,0,0,0.010850694444444444,50.72699652777778,0)" xlink:href="#bm"/><use transform="matrix(0.010850694444444444,0,0,0.010850694444444444,54.47048611111111,0)" xlink:href="#bo"/><use transform="matrix(0.010850694444444444,0,0,0.010850694444444444,63.41145833333333,0)" xlink:href="#bk"/></g><path fill="#f2f2ff" d="M1384-1399c50 0 97 43 97 93 0 85-85 485-254 1202-21 92-58 138-111 138-85 0-129-152-159-261-41-146-109-363-192-655-64 339-132 605-192 802-16 51-74 116-122 116-35 0-63-20-82-60-11-23-28-96-50-220-44-249-136-603-275-1062 67-90 135-134 178-23 110 283 185 606 252 904 81-333 124-549 154-811 9-76 36-163 108-163 70 0 120 70 151 211 48 219 120 480 216 785 34-171 115-553 172-822 12-59 17-97 24-113 17-41 45-61 85-61" id="bp"/><path fill="#f2f2ff" d="M256-800c144 11 449-26 601-24-2-186-9-360 10-529 79-63 176-79 176 66 0 224-6 970-5 1193 0 85-31 128-94 128-25 0-47-9-65-26s-27-227-27-631c-320 13-399 22-593 14 1 150-2 388-3 513 0 87-32 130-96 130-50 0-90-39-90-89v-1290c52-32 94-48 125-48 41 0 61 22 61 65v528" id="bq"/><path fill="#f2f2ff" d="M128-1389c67 0 222-10 294-10 59 0 88 28 88 83 0 66-54 99-162 99 10 274 9 651 10 1063 101 1 152 35 152 101 0 58-99 87-297 87-31 0-61-2-92-5-62-80-79-175 62-174-7-143-4-807-16-1062-24-2-54-7-90-15-39-74-50-167 51-167" id="br"/><path fill="#f2f2ff" d="M271-154c141 3 362-7 506-8 91 0 136 33 136 99 0 60-38 90-114 90-169 0-530 29-647-12-46-16-67-116-67-288 0-188-19-816-17-1004 0-81 33-122 98-122 66 0 99 54 99 162 0 269 12 805 6 1083" id="bs"/><path fill="#f2f2ff" d="M68-128c-2-220 18-952 16-1172 0-66 220-99 660-99 121 0 181 35 181 102 0 48-38 89-87 89-93 0-404-8-497-7-53 0-78 28-75 83s4 164 4 328c136 1 292-1 430-3 51-1 92 37 92 88 0 70-59 105-176 105-132 1-183-2-350-2v466c169-7 342-10 519-10 90 0 135 32 135 97 0 63-41 94-123 94-104 0-454 4-558 3C115 33 69-3 68-128" id="bt"/><g id="H"><use transform="matrix(0.010850694444444444,0,0,0.010850694444444444,0,0)" xlink:href="#bp"/><use transform="matrix(0.010850694444444444,0,0,0.010850694444444444,16.612413194444443,0)" xlink:href="#bq"/><use transform="matrix(0.010850694444444444,0,0,0.010850694444444444,28.700086805555554,0)" xlink:href="#br"/><use transform="matrix(0.010850694444444444,0,0,0.010850694444444444,34.80902777777778,0)" xlink:href="#bs"/><use transform="matrix(0.010850694444444444,0,0,0.010850694444444444,44.748263888888886,0)" xlink:href="#bt"/></g><g id="I"><use transform="matrix(0.010850694444444444,0,0,0.010850694444444444,0,0)" xlink:href="#av"/><use transform="matrix(0.010850694444444444,0,0,0.010850694444444444,10.015190972222221,0)" xlink:href="#aw"/><use transform="matrix(0.010850694444444444,0,0,0.010850694444444444,22.493489583333332,0)" xlink:href="#ax"/><use transform="matrix(0.010850694444444444,0,0,0.010850694444444444,32.37847222222222,0)" xlink:href="#ak"/><use transform="matrix(0.010850694444444444,0,0,0.010850694444444444,44.58550347222222,0)" xlink:href="#ay"/></g><g id="J"><use transform="matrix(0.010850694444444444,0,0,0.010850694444444444,0,0)" xlink:href="#az"/><use transform="matrix(0.010850694444444444,0,0,0.010850694444444444,11.50173611111111,0)" xlink:href="#aA"/><use transform="matrix(0.010850694444444444,0,0,0.010850694444444444,23.404947916666664,0)" xlink:href="#aB"/><use transform="matrix(0.010850694444444444,0,0,0.010850694444444444,35.88324652777777,0)" xlink:href="#ay"/></g><path fill="#f2f2ff" d="M651-670c-28-91-69-228-123-411-28 91-70 228-125 411h248zM849 0L698-503H353C289-288 238-121 201 0H29l407-1357h185L1027 0H849" id="bu"/><path fill="#f2f2ff" d="M263-165h613V0H47v-191l582-614H48v-165h828v158" id="bv"/><g id="K"><use transform="matrix(0.010850694444444444,0,0,0.010850694444444444,0,0)" xlink:href="#bu"/><use transform="matrix(0.010850694444444444,0,0,0.010850694444444444,12.803819444444445,0)" xlink:href="#X"/><use transform="matrix(0.010850694444444444,0,0,0.010850694444444444,24.17534722222222,0)" xlink:href="#aN"/><use transform="matrix(0.010850694444444444,0,0,0.010850694444444444,31.141493055555554,0)" xlink:href="#aL"/><use transform="matrix(0.010850694444444444,0,0,0.010850694444444444,42.75173611111111,0)" xlink:href="#aO"/><use transform="matrix(0.010850694444444444,0,0,0.010850694444444444,54.64409722222221,0)" xlink:href="#aM"/><use transform="matrix(0.010850694444444444,0,0,0.010850694444444444,59.33159722222221,0)" xlink:href="#W"/><use transform="matrix(0.010850694444444444,0,0,0.010850694444444444,63.99739583333333,0)" xlink:href="#bv"/><use transform="matrix(0.010850694444444444,0,0,0.010850694444444444,75.1736111111111,0)" xlink:href="#aO"/><use transform="matrix(0.010850694444444444,0,0,0.010850694444444444,87.06597222222221,0)" xlink:href="#X"/><use transform="matrix(0.010850694444444444,0,0,0.010850694444444444,98.43749999999997,0)" xlink:href="#W"/><use transform="matrix(0.010850694444444444,0,0,0.010850694444444444,103.10329861111111,0)" xlink:href="#Y"/><use transform="matrix(0.010850694444444444,0,0,0.010850694444444444,115.48394097222221,0)" xlink:href="#U"/></g><g id="L"><use transform="matrix(0.010850694444444444,0,0,0.010850694444444444,0,0)" xlink:href="#V"/><use transform="matrix(0.010850694444444444,0,0,0.010850694444444444,13.06423611111111,0)" xlink:href="#aJ"/><use transform="matrix(0.010850694444444444,0,0,0.010850694444444444,25.596788194444443,0)" xlink:href="#aM"/></g><g id="M"><use transform="matrix(0.010850694444444444,0,0,0.010850694444444444,0,0)" xlink:href="#T"/><use transform="matrix(0.010850694444444444,0,0,0.010850694444444444,12.532552083333332,0)" xlink:href="#aT"/><use transform="matrix(0.010850694444444444,0,0,0.010850694444444444,25.206163194444443,0)" xlink:href="#aU"/><use transform="matrix(0.010850694444444444,0,0,0.010850694444444444,30.555555555555554,0)" xlink:href="#aJ"/><use transform="matrix(0.010850694444444444,0,0,0.010850694444444444,43.088107638888886,0)" xlink:href="#aN"/><use transform="matrix(0.010850694444444444,0,0,0.010850694444444444,50.05425347222222,0)" xlink:href="#T"/></g><path fill="#f2f2ff" d="M223-484c0 174 142 340 313 340 169 0 319-168 319-340 0-174-147-342-319-342-173 0-313 166-313 342zm798 0c0 261-225 505-485 505-129 0-235-50-318-149v516H53V-970h165v128c83-99 189-149 318-149 260 0 485 246 485 507" id="bw"/><path fill="#f2f2ff" d="M535-805c-177 0-317 145-317 321V0H51v-970h167v134c85-89 189-134 310-134h218v218c-83-35-153-53-211-53" id="bx"/><g id="N"><use transform="matrix(0.010850694444444444,0,0,0.010850694444444444,0,0)" xlink:href="#bw"/><use transform="matrix(0.010850694444444444,0,0,0.010850694444444444,12.40234375,0)" xlink:href="#aO"/><use transform="matrix(0.010850694444444444,0,0,0.010850694444444444,24.29470486111111,0)" xlink:href="#bx"/><use transform="matrix(0.010850694444444444,0,0,0.010850694444444444,33.05121527777777,0)" xlink:href="#aO"/></g><g id="O"><use transform="matrix(0.010850694444444444,0,0,0.010850694444444444,0,0)" xlink:href="#aM"/><use transform="matrix(0.010850694444444444,0,0,0.010850694444444444,4.6875,0)" xlink:href="#aO"/></g><g id="P"><use transform="matrix(0.010850694444444444,0,0,0.010850694444444444,0,0)" xlink:href="#X"/><use transform="matrix(0.010850694444444444,0,0,0.010850694444444444,11.371527777777777,0)" xlink:href="#T"/><use transform="matrix(0.010850694444444444,0,0,0.010850694444444444,23.904079861111104,0)" xlink:href="#U"/><use transform="matrix(0.010850694444444444,0,0,0.010850694444444444,36.349826388888886,0)" xlink:href="#V"/><use transform="matrix(0.010850694444444444,0,0,0.010850694444444444,49.4140625,0)" xlink:href="#W"/><use transform="matrix(0.010850694444444444,0,0,0.010850694444444444,54.07986111111112,0)" xlink:href="#X"/><use transform="matrix(0.010850694444444444,0,0,0.010850694444444444,65.45138888888889,0)" xlink:href="#W"/><use transform="matrix(0.010850694444444444,0,0,0.010850694444444444,70.1171875,0)" xlink:href="#Y"/><use transform="matrix(0.010850694444444444,0,0,0.010850694444444444,82.49782986111111,0)" xlink:href="#U"/></g><path fill="#f2f2ff" d="M1139-1357h173L1069 0H901L669-978 434 0H271L28-1357h171l170 952 221-952h155l228 953" id="by"/><path fill="#f2f2ff" d="M218-1357v689h516v-689h165V0H734v-503H218V0H53v-1357h165" id="bz"/><path fill="#f2f2ff" d="M218-1357v1192h580V0H53v-1357h165" id="bA"/><path fill="#f2f2ff" d="M861-1357v165H218v378h516v165H218v484h643V0H53v-1357h808" id="bB"/><g id="Q"><use transform="matrix(0.010850694444444444,0,0,0.010850694444444444,0,0)" xlink:href="#by"/><use transform="matrix(0.010850694444444444,0,0,0.010850694444444444,16.15668402777778,0)" xlink:href="#bz"/><use transform="matrix(0.010850694444444444,0,0,0.010850694444444444,27.766927083333336,0)" xlink:href="#Z"/><use transform="matrix(0.010850694444444444,0,0,0.010850694444444444,34.73307291666667,0)" xlink:href="#bA"/><use transform="matrix(0.010850694444444444,0,0,0.010850694444444444,44.9435763888889,0)" xlink:href="#bB"/></g><path fill="#f2f2ff" d="M632 289c-273 0-479-100-479-368 0-320 313-335 421-549 13-28 20-59 21-96h175c-9 310-312 327-416 542-13 27-19 60-19 95 0 165 127 226 295 226 189 0 295-102 318-272l184 12c-39 259-205 410-500 410zm146-1370v201H583v-201h195" id="bC"/><path fill="#f2f2ff" d="M206-772l583-585h236L469-797 1042 0H836L346-672 206-533V0H40v-1357h166v585" id="bD"/><g id="R"><use transform="matrix(0.010850694444444444,0,0,0.010850694444444444,0,0)" xlink:href="#bC"/><use transform="matrix(0.010850694444444444,0,0,0.010850694444444444,13.335503472222221,0)" xlink:href="#aP"/><use transform="matrix(0.010850694444444444,0,0,0.010850694444444444,25.813802083333332,0)" xlink:href="#aI"/><use transform="matrix(0.010850694444444444,0,0,0.010850694444444444,38.04253472222222,0)" xlink:href="#bB"/><use transform="matrix(0.010850694444444444,0,0,0.010850694444444444,48.61111111111111,0)" xlink:href="#bu"/><use transform="matrix(0.010850694444444444,0,0,0.010850694444444444,61.41493055555555,0)" xlink:href="#bD"/><use transform="matrix(0.010850694444444444,0,0,0.010850694444444444,74.26215277777777,0)" xlink:href="#aV"/></g></defs></g></svg>